<?xml version="1.0" encoding="UTF-8"?>
<svg width="201px" height="169px" viewBox="0 0 201 169" version="1.1" xmlns="http://www.w3.org/2000/svg" xmlns:xlink="http://www.w3.org/1999/xlink">
    <!-- Generator: Sketch 63.1 (92452) - https://sketch.com -->
    <title>Group 39</title>
    <desc>Created with Sketch.</desc>
    <defs>
        <filter x="-6.2%" y="-7.5%" width="112.4%" height="114.9%" filterUnits="objectBoundingBox" id="filter-1">
            <feOffset dx="0" dy="2" in="SourceAlpha" result="shadowOffsetOuter1"></feOffset>
            <feGaussianBlur stdDeviation="2" in="shadowOffsetOuter1" result="shadowBlurOuter1"></feGaussianBlur>
            <feColorMatrix values="0 0 0 0 0   0 0 0 0 0   0 0 0 0 0  0 0 0 0.5 0" type="matrix" in="shadowBlurOuter1" result="shadowMatrixOuter1"></feColorMatrix>
            <feMerge>
                <feMergeNode in="shadowMatrixOuter1"></feMergeNode>
                <feMergeNode in="SourceGraphic"></feMergeNode>
            </feMerge>
        </filter>
        <polygon id="path-2" points="0.338237209 0.439435897 22 0.439435897 22 19.7589231 0.338237209 19.7589231"></polygon>
        <polygon id="path-4" points="0 161 194 161 194 0 0 0"></polygon>
    </defs>
    <g id="Welcome" stroke="none" stroke-width="1" fill="none" fill-rule="evenodd">
        <g id="Tablet-Portrait" transform="translate(-301.000000, -2.000000)">
            <g id="Group-39" filter="url(#filter-1)" transform="translate(305.000000, 4.000000)">
                <path d="M129,94.5 C129,126.256275 102.5847,152 70,152 C37.4153002,152 11,126.256275 11,94.5 C11,62.7437247 37.4153002,37 70,37 C102.5847,37 129,62.7437247 129,94.5" id="Fill-1" fill="#CBD2C2"></path>
                <path d="M35,78.138083 L35,78 L51,78 L51,84.8969819 L50.8572742,84.8969819 C50.8572742,82.9652536 50.0789038,80.781727 47.8364907,79.2183792 C46.5156643,78.3220343 45.383177,78.138083 43.2354239,78.138083 L43.2354239,86.3447031 C45.4773466,86.3447031 46.6564282,85.6323096 47.4122371,83.7010591 C47.4828643,83.4941735 47.6716939,82.6666313 47.6716939,81.9083694 L47.8129483,81.9083694 L47.8129483,90.965466 L47.6716939,90.965466 C47.6716939,90.2296605 47.4828643,89.379184 47.4122371,89.1952327 C46.6564282,87.241048 45.4773466,86.5052425 43.2354239,86.5052425 L43.2354239,93.1953388 C43.2354239,95.1724577 43.4002207,95.861917 45.9020906,95.861917 L46.0428545,95.861917 L46.0428545,96 L35,96 L35,95.861917 L35.1647968,95.861917 C37.6666667,95.861917 37.8074306,95.1724577 37.8074306,93.1953388 L37.8074306,80.8046612 C37.8074306,78.8275423 37.6666667,78.138083 35.1647968,78.138083 L35,78.138083 Z" id="Fill-3" fill="#707767"></path>
                <path d="M71.2932686,85.5030944 C71.2932686,82.1087158 71.084843,78.1341413 67.9656626,78.1341413 C64.8464822,78.1341413 64.6380566,82.1087158 64.6380566,85.5030944 L64.6380566,87 L64.6380566,88.4959773 C64.6380566,91.8680763 64.8464822,95.8208355 67.9656626,95.8208355 C71.084843,95.8208355 71.2932686,91.8680763 71.2932686,88.4959773 L71.2932686,87 L71.2932686,85.5030944 Z M67.9891945,96 C62.9504816,96 59,91.8680763 59,87 C59,82.1314595 62.9504816,78 67.9891945,78 C73.0259865,78 77,82.1314595 77,87 C77,91.8680763 73.0259865,96 67.9891945,96 L67.9891945,96 Z" id="Fill-5" fill="#707767"></path>
                <path d="M91.4299647,86.3756257 C93.1282122,86.3756257 94.1099857,86.2171144 94.5870835,84.9683659 C94.6681626,84.7188049 94.7475869,83.9017167 94.7475869,82.9709343 C94.7475869,81.4499803 94.5870835,79.5657712 94.0829594,78.9991875 C93.4199865,78.204272 92.4652393,78.1363386 91.1905884,78.1363386 L90.2628676,78.1363386 L90.2628676,86.3756257 L91.4299647,86.3756257 Z M101.249354,94.9555235 C102.204102,94.9555235 102.814676,93.3208754 102.814676,91.1418163 C102.814676,90.8243218 102.78765,90.5294719 102.735252,90.2799109 L102.920576,90.2799109 C102.972974,90.4841829 103,90.8016774 103,91.1649325 C103,91.1871052 103,93.1170751 102.416451,94.2068405 C102.045253,94.9097628 101.434678,96 98.6487577,96 C97.5605335,96 96.3917818,95.7726117 95.4100083,95.1593238 C94.4558127,94.5469794 94.1640384,93.4803302 94.1640384,92.0730704 C94.1640384,91.4824269 94.2953092,90.0298781 94.2953092,89.2807234 C94.2953092,86.7162364 93.2870609,86.5119644 91.4029383,86.5119644 L90.2628676,86.5119644 L90.2628676,93.0033809 C90.2628676,94.9555235 90.6070399,95.6362731 92.7823852,95.6362731 L93.1011859,95.6362731 L93.1011859,95.7726117 L81,95.7726117 L81,95.6362731 L81.1869782,95.6362731 C83.9988217,95.6362731 84.1587735,94.9555235 84.1587735,93.0033809 L84.1587735,80.768759 C84.1587735,78.8170882 83.9988217,78.1363386 81.1869782,78.1363386 L81,78.1363386 L81,78 L91.509389,78 C93.7658134,78 97.9841302,78.0679334 99.921754,80.4059756 C100.42643,80.9961473 100.63878,81.6537806 100.63878,82.2901848 C100.63878,82.6529682 100.559355,83.0166951 100.42643,83.3337177 C99.4176298,85.6259992 96.2334846,86.1029485 94.5870835,86.4888481 C95.6499361,86.7162364 97.5070324,86.9889136 98.7800286,87.7375966 C100.399403,88.6910235 100.532329,90.2799109 100.532329,91.5961211 L100.532329,93.7978247 C100.532329,94.5696239 100.665806,94.9555235 101.249354,94.9555235 L101.249354,94.9555235 Z" id="Fill-7" fill="#707767"></path>
                <path d="M115.666919,95.8394606 C116.809589,95.8394606 117.976013,95.723834 118.54809,95.4710801 C121.094725,94.3683274 122.618945,92.8049797 122.85797,88.0227218 L123,88.0227218 L123,96 L106,96 L106,95.861917 L106.14203,95.861917 C108.666395,95.861917 108.832673,95.1724577 108.832673,93.1958166 L108.832673,80.8046612 C108.832673,78.8280201 108.666395,78.138083 106.14203,78.138083 L106,78.138083 L106,78 L122.143369,78 L122.143369,84.8969819 L121.999854,84.8969819 C121.999854,82.9652536 121.190236,80.7587928 118.952405,79.2183792 C117.618712,78.2991002 116.476537,78.138083 114.309473,78.138083 L114.309473,86.3447031 C116.572048,86.3447031 117.738472,85.6323096 118.523841,83.7010591 C118.595104,83.4941735 118.761382,82.6666313 118.761382,81.9083694 L118.927661,81.9083694 L118.927661,90.965466 L118.761382,90.965466 C118.761382,90.2296605 118.595104,89.379184 118.523841,89.1952327 C117.738472,87.241048 116.572048,86.5057203 114.309473,86.5057203 L114.309473,93.1958166 C114.309473,95.6555093 114.5,95.8394606 115.666919,95.8394606" id="Fill-9" fill="#707767"></path>
                <path d="M130.299851,95.820877 L130.148888,95.820877 L130.148888,88.0546802 L130.299851,88.0546802 C130.299851,90.2993158 131.572401,92.4767803 133.344011,93.9354203 C134.741586,95.1025189 136.464432,95.820877 138.136437,95.820877 C140.733415,95.820877 141.405745,93.91303 141.405745,92.723541 C141.405745,90.3669535 138.736139,89.7157666 137.113417,89.3122732 L135.666559,88.9526278 C133.020297,88.3014409 130,87 130,83.7687882 C130,82.9156214 130.249011,82.0176739 130.74859,81.2326112 C131.697426,79.7282575 134.792426,78.0452472 137.487452,78.0452472 C138.661436,78.0452472 139.410544,78.2467607 140.033591,78.4715974 C140.782699,78.7412149 141.381882,79.0098995 142.354581,79.0098995 C143.128591,79.0098995 143.9026,78.8979475 143.977304,78 L144.15213,78 L144.15213,84.441899 L144.002724,84.441899 C144.002724,83.0504302 143.528565,81.7489893 141.930744,80.0207318 C140.682576,78.6511869 139.085273,78.2029128 137.73802,78.2029128 C136.689579,78.2029128 135.91557,78.4268166 135.1924,79.3695449 C134.91745,79.7511143 134.792426,80.3122732 134.792426,80.8281849 C134.792426,83.4987043 137.761883,83.9703016 138.710719,84.1722815 L139.884703,84.4190422 C141.381882,84.7334404 146,85.4965792 146,89.8505753 C146,91.2644345 145.425718,92.7907121 144.002724,94.0030579 C142.279878,95.4836219 140.856883,96 138.585176,96 C135.641139,96 133.020297,94.7881207 131.722845,94.7881207 C131.097724,94.7881207 130.548862,95.0129574 130.299851,95.820877" id="Fill-11" fill="#707767"></path>
                <path d="M165.978729,95.861917 L165.978729,96 L155.021271,96 L155.021271,95.861917 L155.160946,95.861917 C157.643469,95.861917 157.806991,95.1724577 157.806991,93.1953388 L157.806991,78.138083 C155.88755,78.2068856 154.271306,79.7931675 153.241505,81.4941205 C152.397612,82.8505826 152.140162,84.0455499 152.140162,85.5171608 L152,85.5171608 L152,78 L169,78 L169,85.5171608 L168.859838,85.5171608 C168.859838,84.0455499 168.578541,82.8505826 167.758495,81.4941205 C166.728694,79.7931675 165.088603,78.2068856 163.193009,78.138083 L163.193009,93.1953388 C163.193009,95.1724577 163.332684,95.861917 165.815207,95.861917 L165.978729,95.861917 Z" id="Fill-13" fill="#707767"></path>
                <g id="Group-17" transform="translate(172.000000, 76.000000)">
                    <mask id="mask-3" fill="white">
                        <use xlink:href="#path-2"></use>
                    </mask>
                    <g id="Clip-16"></g>
                    <path d="M11.4881442,11.5425128 L9.02721395,3.35071795 L6.31916744,11.5425128 L11.4881442,11.5425128 Z M12.1276791,19.5866154 C13.0634465,19.5866154 13.6062837,19.3886667 13.6062837,18.5748205 C13.6062837,18.0071282 13.3340977,17.2912308 13.113586,16.6004615 L11.5633535,11.7399487 L6.27056279,11.7399487 C5.75279535,13.2943077 5.16288837,14.947641 5.16288837,16.4030256 C5.16288837,17.1430256 5.30972558,17.8337949 5.7041907,18.4266154 C6.49107442,19.6107179 7.84586512,19.6107179 8.87833023,19.6107179 L8.87833023,19.7589231 L0.338237209,19.7589231 L0.338237209,19.6107179 C3.26679535,19.6107179 4.3494,16.9466154 5.28465581,14.0835385 L9.79056279,0.439435897 L13.8769349,0.439435897 L19.6358186,17.9327692 C20.0804233,19.2655897 20.6703302,19.6107179 22.0000512,19.6107179 L22.0000512,19.7589231 L11.045586,19.7589231 L11.045586,19.6107179 L12.1046558,19.6107179 L12.1276791,19.5866154 Z" id="Fill-15" fill="#707767" mask="url(#mask-3)"></path>
                </g>
                <mask id="mask-5" fill="white">
                    <use xlink:href="#path-4"></use>
                </mask>
                <g id="Clip-19"></g>
                <polygon id="Fill-18" fill="#707767" mask="url(#mask-5)" points="39 111 40 111 40 104 39 104"></polygon>
                <polygon id="Fill-20" fill="#707767" mask="url(#mask-5)" points="47 104 47 105.287967 45.2302958 105.287967 45.2302958 111 43.7710821 111 43.7710821 105.287967 42 105.287967 42 104"></polygon>
                <path d="M53.5554673,108.323379 L55.4450379,108.323379 L54.8099603,106.406761 C54.768026,106.285631 54.7205341,106.141501 54.6644533,105.976928 C54.6088777,105.811843 54.555323,105.633981 54.5007578,105.441297 C54.4502346,105.637047 54.3976904,105.817465 54.3436305,105.983572 C54.2895706,106.151212 54.2395525,106.294831 54.1920606,106.416983 L53.5554673,108.323379 Z M58,111 L56.7566222,111 C56.6176831,111 56.5014796,110.96729 56.4120534,110.901358 C56.3226272,110.835938 56.2589679,110.751095 56.2251173,110.648876 L55.8158787,109.429395 L53.1846265,109.429395 L52.7763984,110.648876 C52.7445687,110.738829 52.6824251,110.819582 52.5914832,110.892158 C52.4985204,110.964223 52.3873692,111 52.254493,111 L51,111 L53.6792494,104 L55.3227716,104 L58,111 Z" id="Fill-21" fill="#707767" mask="url(#mask-5)"></path>
                <polygon id="Fill-22" fill="#707767" mask="url(#mask-5)" points="64.5398037 109.702833 67 109.702833 67 111 63 111 63 104 64.5398037 104"></polygon>
                <polygon id="Fill-23" fill="#707767" mask="url(#mask-5)" points="70 111 71 111 71 104 70 104"></polygon>
                <path d="M78.5552829,108.323379 L80.4447171,108.323379 L79.8096853,106.406761 C79.7682592,106.285631 79.7202656,106.141501 79.664694,105.976928 C79.6091224,105.811843 79.5550664,105.633981 79.5010104,105.441297 C79.4499856,105.637047 79.3974452,105.817465 79.3433891,105.983572 C79.2893331,106.151212 79.2398239,106.294831 79.1918303,106.416983 L78.5552829,108.323379 Z M83,111 L81.7562067,111 C81.6172777,111 81.5015878,110.96729 81.4116628,110.901358 C81.3222431,110.835938 81.2590935,110.751095 81.2247402,110.648876 L80.8155312,109.429395 L78.1844688,109.429395 L77.7767754,110.648876 C77.7444428,110.738829 77.6823037,110.819582 77.5913684,110.892158 C77.4989174,110.964223 77.3872691,111 77.2544024,111 L76,111 L78.679056,104 L80.3229648,104 L83,111 Z" id="Fill-24" fill="#707767" mask="url(#mask-5)"></path>
                <path d="M85.8451823,104.0092 C85.8849113,104.016355 85.9192037,104.02811 85.9514052,104.045999 C85.9819338,104.062865 86.0124624,104.087909 86.0421546,104.120108 C86.070174,104.152307 86.10363,104.195239 86.139177,104.249927 L88.8604048,108.453198 C88.8491134,108.318779 88.8415858,108.188449 88.8361492,108.061697 C88.8311308,107.935967 88.8286216,107.81637 88.8286216,107.703928 L88.8286216,104 L90,104 L90,111 L89.3082971,111 C89.2058381,111 89.1188525,110.980578 89.0485948,110.942246 C88.9783372,110.903914 88.9105888,110.833382 88.8436768,110.731162 L86.1429408,106.560602 C86.1521412,106.682243 86.1584142,106.80184 86.1634326,106.91837 C86.168451,107.035923 86.1713784,107.145298 86.1713784,107.247518 L86.1713784,111 L85,111 L85,104 L85.6992305,104 C85.7569421,104 85.8054533,104.003067 85.8451823,104.0092" id="Fill-25" fill="#707767" mask="url(#mask-5)"></path>
                <polygon id="Fill-26" fill="#707767" mask="url(#mask-5)" points="101 111 102 111 102 104 101 104"></polygon>
                <path d="M109.825929,108.177906 C109.886204,108.309345 109.944921,108.443852 110.00052,108.581428 C110.05456,108.440783 110.113796,108.303719 110.17563,108.170235 C110.237464,108.037262 110.301377,107.90838 110.366329,107.783079 L112.193817,104.240886 C112.225513,104.180025 112.258769,104.132973 112.293583,104.099218 C112.326838,104.065464 112.36529,104.040403 112.407898,104.024037 C112.451026,104.008694 112.498831,104 112.552871,104 L112.739932,104 L114,104 L114,111 L112.544557,111 L112.544557,106.971433 C112.544557,106.776065 112.55391,106.56382 112.575214,106.336231 L110.68901,109.93724 C110.629774,110.049755 110.550792,110.134142 110.452065,110.191934 C110.35178,110.250237 110.239023,110.278878 110.112237,110.278878 L109.888283,110.278878 C109.760977,110.278878 109.64822,110.250237 109.547935,110.191934 C109.449208,110.134142 109.370226,110.049755 109.31099,109.93724 L107.415433,106.331629 C107.429982,106.444144 107.439335,106.555125 107.44557,106.665595 C107.452325,106.776576 107.455443,106.878352 107.455443,106.971433 L107.455443,111 L106,111 L106,104 L107.260068,104 L107.447129,104 C107.501169,104 107.548974,104.008694 107.592102,104.024037 C107.63471,104.040403 107.673162,104.065464 107.706417,104.099218 C107.741231,104.132973 107.774487,104.180025 107.806703,104.240886 L109.638348,107.796888 C109.703819,107.91912 109.765653,108.045956 109.825929,108.177906" id="Fill-27" fill="#707767" mask="url(#mask-5)"></path>
                <path d="M119.536416,107.435091 L120.336299,107.435091 C120.735758,107.435091 121.023987,107.334404 121.200019,107.13252 C121.376052,106.931148 121.463101,106.649022 121.463101,106.287164 C121.463101,106.126679 121.440855,105.981016 121.395396,105.849664 C121.349454,105.718312 121.281265,105.60587 121.188413,105.511317 C121.096528,105.416764 120.979495,105.343677 120.839249,105.292567 C120.697069,105.241457 120.530225,105.215902 120.336299,105.215902 L119.536416,105.215902 L119.536416,107.435091 Z M119.536416,108.660193 L119.536416,111 L118,111 L118,104 L120.336299,104 C120.803946,104 121.204372,104.058265 121.538543,104.175818 C121.873199,104.292348 122.149337,104.453344 122.36696,104.657783 C122.582648,104.863245 122.742238,105.104994 122.846213,105.384054 C122.948254,105.662091 123,105.963639 123,106.287164 C123,106.635733 122.94632,106.956192 122.841377,107.247518 C122.734984,107.538843 122.572493,107.789282 122.35487,107.996787 C122.13628,108.205827 121.859658,108.367845 121.525486,108.484375 C121.189864,108.601928 120.793307,108.660193 120.336299,108.660193 L119.536416,108.660193 Z" id="Fill-28" fill="#707767" mask="url(#mask-5)"></path>
                <path d="M133.173003,107.497749 C133.173003,107.159128 133.122971,106.854519 133.025156,106.582922 C132.925655,106.312326 132.784555,106.082244 132.599044,105.894677 C132.414658,105.70661 132.18811,105.562058 131.919963,105.462022 C131.651254,105.361986 131.34713,105.311468 131.00534,105.311468 C130.661303,105.311468 130.353805,105.361986 130.083972,105.462022 C129.814138,105.562058 129.587028,105.70661 129.401518,105.894677 C129.217694,106.082244 129.074907,106.312326 128.977092,106.582922 C128.878715,106.854519 128.828684,107.159128 128.828684,107.497749 C128.828684,107.839371 128.878715,108.146481 128.977092,108.417078 C129.074907,108.688675 129.217694,108.917756 129.401518,109.105824 C129.587028,109.294391 129.814138,109.436942 130.083972,109.535977 C130.353805,109.634512 130.661303,109.68403 131.00534,109.68403 C131.34713,109.68403 131.651254,109.634512 131.919963,109.535977 C132.18811,109.436942 132.414658,109.294391 132.599044,109.105824 C132.784555,108.917756 132.925655,108.688675 133.025156,108.417078 C133.122971,108.146481 133.173003,107.839371 133.173003,107.497749 M135,107.497749 C135,107.993426 134.905558,108.453591 134.713302,108.880243 C134.520483,109.306395 134.25065,109.677028 133.901553,109.99214 C133.553018,110.307253 133.133652,110.553841 132.641768,110.732404 C132.149884,110.911468 131.605158,111 131.00534,111 C130.40721,111 129.860235,110.911468 129.366664,110.732404 C128.873656,110.553841 128.452603,110.307253 128.10182,109.99214 C127.751036,109.677028 127.479517,109.306395 127.288947,108.880243 C127.096128,108.453591 127,107.993426 127,107.497749 C127,107.002072 127.096128,106.541908 127.288947,106.115255 C127.479517,105.689103 127.751036,105.318971 128.10182,105.006359 C128.452603,104.692747 128.873656,104.446159 129.366664,104.267596 C129.860235,104.089532 130.40721,104 131.00534,104 C131.605158,104 132.149884,104.090032 132.641768,104.269596 C133.133652,104.450161 133.553018,104.697249 133.901553,105.010861 C134.25065,105.324473 134.520483,105.693605 134.713302,106.120257 C134.905558,106.546409 135,107.006074 135,107.497749" id="Fill-29" fill="#707767" mask="url(#mask-5)"></path>
                <path d="M139.417797,107.291472 L139.988129,107.291472 C140.180471,107.291472 140.345591,107.263362 140.48081,107.207141 C140.617369,107.15092 140.728044,107.073233 140.815066,106.97408 C140.901196,106.874927 140.963674,106.758397 141.003392,106.625511 C141.04311,106.492626 141.062299,106.349518 141.062299,106.195678 C141.062299,105.887996 140.97483,105.64778 140.800339,105.47554 C140.625402,105.301767 140.35407,105.215902 139.988129,105.215902 L139.417797,105.215902 L139.417797,107.291472 Z M139.417797,108.410266 L139.417797,111 L138,111 L138,104 L139.988129,104 C140.430382,104 140.807033,104.052132 141.118083,104.156396 C141.430471,104.260149 141.684398,104.405812 141.882096,104.590829 C142.0789,104.776869 142.222153,104.996641 142.312299,105.249635 C142.401999,105.502629 142.445734,105.777599 142.445734,106.07557 C142.445734,106.303008 142.41985,106.517669 142.366744,106.719553 C142.313638,106.920926 142.234648,107.107988 142.129329,107.278695 C142.024009,107.450935 141.89593,107.603242 141.74286,107.737661 C141.591574,107.872591 141.415744,107.982988 141.217601,108.069874 C141.311764,108.12354 141.400571,108.191005 141.483577,108.271247 C141.565691,108.350978 141.637986,108.448598 141.699572,108.564106 L143,111 L141.716976,111 C141.478222,111 141.307747,110.89778 141.203767,110.69283 L140.189843,108.660704 C140.145216,108.570751 140.091664,108.506352 140.031864,108.46802 C139.971617,108.430199 139.887272,108.410266 139.777936,108.410266 L139.417797,108.410266 Z" id="Fill-30" fill="#707767" mask="url(#mask-5)"></path>
                <polygon id="Fill-31" fill="#707767" mask="url(#mask-5)" points="152 104 152 105.287967 150.230296 105.287967 150.230296 111 148.771082 111 148.771082 105.287967 147 105.287967 147 104"></polygon>
                <path d="M158.490529,105.466919 C158.441091,105.541941 158.390612,105.598457 158.33649,105.635967 C158.282369,105.673978 158.213676,105.692484 158.129371,105.692484 C158.052873,105.692484 157.973251,105.669477 157.885824,105.624464 C157.799958,105.579451 157.702644,105.527937 157.592839,105.47142 C157.483035,105.414904 157.35918,105.36439 157.219192,105.318377 C157.079205,105.273364 156.918401,105.250357 156.740425,105.250357 C156.429746,105.250357 156.199209,105.313875 156.047773,105.440912 C155.895296,105.567948 155.820358,105.739997 155.820358,105.955559 C155.820358,106.094098 155.865112,106.207631 155.957223,106.298657 C156.047773,106.389683 156.167465,106.468705 156.316819,106.534224 C156.464613,106.600243 156.633743,106.66026 156.824209,106.714776 C157.015716,106.769791 157.211386,106.831309 157.410179,106.898328 C157.608972,106.965847 157.803081,107.04537 157.994067,107.136396 C158.185054,107.227422 158.353664,107.342455 158.503018,107.483995 C158.651332,107.625036 158.771024,107.796085 158.863135,107.998642 C158.953684,108.2007 159,108.44477 159,108.729851 C159,109.046442 158.942756,109.342526 158.827748,109.618605 C158.71326,109.894684 158.547773,110.134753 158.331286,110.340312 C158.1148,110.54537 157.847835,110.706416 157.529351,110.82445 C157.211386,110.941983 156.850229,111 156.445878,111 C156.224709,111 155.998335,110.978994 155.767798,110.934481 C155.538822,110.890969 155.316091,110.828951 155.101166,110.748428 C154.884679,110.668905 154.682764,110.574378 154.4949,110.463847 C154.305475,110.354816 154.139988,110.232281 154,110.097742 L154.488655,109.35553 C154.525083,109.298514 154.576082,109.253001 154.641132,109.218491 C154.706703,109.183981 154.776436,109.166976 154.851374,109.166976 C154.948168,109.166976 155.047044,109.196985 155.147481,109.256002 C155.245837,109.315519 155.358764,109.381538 155.4847,109.454058 C155.610117,109.525579 155.755308,109.591598 155.917673,109.651115 C156.081599,109.711132 156.272065,109.74064 156.495316,109.74064 C156.794026,109.74064 157.028206,109.677122 157.193693,109.550586 C157.360741,109.42355 157.443485,109.221492 157.443485,108.946413 C157.443485,108.786368 157.397169,108.65633 157.306619,108.555302 C157.21607,108.455273 157.094817,108.372749 156.947023,108.30623 C156.79923,108.240211 156.6301,108.183195 156.441195,108.132681 C156.251769,108.082666 156.05766,108.027151 155.858347,107.966133 C155.659555,107.904616 155.465445,107.829094 155.27602,107.740069 C155.086595,107.650543 154.917985,107.533009 154.770192,107.387968 C154.621878,107.241926 154.502706,107.059874 154.410595,106.841812 C154.319525,106.62475 154.27373,106.355673 154.27373,106.035582 C154.27373,105.779008 154.327852,105.527937 154.435575,105.283367 C154.542777,105.039297 154.701499,104.821235 154.910179,104.63018 C155.118859,104.439125 155.374896,104.286082 155.677248,104.171549 C155.981162,104.057516 156.328268,104 156.719609,104 C156.937656,104 157.1505,104.016505 157.357619,104.049014 C157.564738,104.082023 157.761969,104.131037 157.948272,104.195056 C158.134055,104.259574 158.307348,104.336096 158.468672,104.425121 C158.630516,104.514647 158.773626,104.615676 158.901124,104.728708 L158.490529,105.466919 Z" id="Fill-32" fill="#707767" mask="url(#mask-5)"></path>
                <path d="M69.7393067,161 C31.2848798,161 0,130.719064 0,93.4992598 C0,56.2799496 31.2848798,26 69.7393067,26 C70.179788,26 70.5371693,26.3459071 70.5371693,26.7727397 C70.5371693,27.1990789 70.179788,27.544986 69.7393067,27.544986 C32.1653326,27.544986 1.59623496,57.1321344 1.59623496,93.4992598 C1.59623496,129.867372 32.1653326,159.455014 69.7393067,159.455014 C92.6015107,159.455014 113.834851,148.408191 126.536926,129.904874 C126.780618,129.549592 127.276159,129.451889 127.643227,129.688744 C128.010295,129.924612 128.110729,130.404244 127.866527,130.759526 C114.867739,149.695104 93.1378375,161 69.7393067,161" id="Fill-33" fill="#707767" mask="url(#mask-5)"></path>
                <path d="M86.4670908,2.11914155 C84.3450269,3.48185472 79.7042163,6.87502995 76.5942059,12.178142 C73.4846654,17.480768 72.7204404,23.3043742 72.5329092,25.880116 C74.6549731,24.5174028 79.2962537,21.1247136 82.4062641,15.8216015 C85.5153346,10.5184895 86.2795596,4.69488328 86.4670908,2.11914155 L86.4670908,2.11914155 Z M71.7362539,28 C71.6037131,28 71.4716422,27.9630648 71.3546114,27.8896805 C71.13653,27.7531176 71.0021091,27.5086651 71.0001103,27.2447731 C70.9978791,26.9036088 70.989889,18.7997422 75.3360076,11.3888958 C79.6821262,3.97804949 86.6348819,0.238850093 86.9286338,0.0833336111 C87.1556453,-0.036219684 87.4268371,-0.0269858929 87.6453886,0.110063006 C87.86347,0.246625917 87.9978909,0.490592397 87.9998897,0.754970415 C88.0021209,1.0961347 88.010111,9.19951536 83.6644624,16.6108477 C79.3183438,24.02218 72.3651181,27.7604074 72.0713661,27.9164099 C71.9660854,27.9718126 71.8509347,28 71.7362539,28 L71.7362539,28 Z" id="Fill-34" fill="#707767" mask="url(#mask-5)"></path>
                <path d="M71.4581295,26.8493256 C73.8959767,28.0671433 79.5948007,30.4932355 86.0852127,30.3325918 C92.5883431,30.1761894 98.1640538,27.4850084 100.54187,26.1510818 C98.1040233,24.9327339 92.3990945,22.5055814 85.9147873,22.6678157 C79.4121656,22.824218 73.836455,25.515399 71.4581295,26.8493256 M85.4681199,32 C76.7006202,32 69.6953706,27.7893303 69.3947096,27.6064191 C69.1556052,27.4611504 69.0070552,27.197122 69.0002133,26.9087055 C68.9938282,26.6213493 69.131186,26.3504286 69.3631681,26.193496 C69.6628117,25.9909682 76.8079628,21.2267932 85.8786672,21.0083601 C94.941232,20.7825045 102.297507,25.2063055 102.606308,25.3939884 C102.844395,25.539257 102.993453,25.8032854 102.999787,26.0911718 C103.006172,26.3790582 102.868814,26.6499789 102.637341,26.8069114 C102.337188,27.0094392 95.1920372,31.7736142 86.1218415,31.9915172 C85.9030864,31.9968189 85.6848401,32 85.4681199,32" id="Fill-35" fill="#707767" mask="url(#mask-5)"></path>
                <path d="M69.0035572,6.95946035 C66.3410012,7.96233185 60.4485307,10.5594996 55.9831684,15.2644298 C51.5183506,19.9693601 49.6502055,25.5496374 48.996273,28.0418982 C51.658829,27.0385455 57.5512995,24.4413778 62.0161174,19.7364475 C66.4814797,15.0315172 68.3490803,9.45123992 69.0035572,6.95946035 M47.8522996,30 C47.6551942,30 47.4602668,29.9393657 47.3045426,29.8238719 C47.0780348,29.6564058 46.9664144,29.3960635 47.0088846,29.137646 C47.0644226,28.8031951 48.4370818,20.8716557 54.6769369,14.2962065 C60.9173366,7.72123846 69.5159223,5.1447634 69.8790971,5.03889405 C70.158965,4.95564224 70.4682353,5.00809569 70.6952876,5.17652421 C70.9217954,5.3444715 71.0339604,5.60433264 70.9909457,5.86323133 C70.9354077,6.19768223 69.5627484,14.1292216 63.3223488,20.7046709 C57.0824937,27.2806013 48.4839079,29.8556327 48.1207331,29.9619833 C48.0330702,29.9879694 47.9421404,30 47.8522996,30" id="Fill-36" fill="#707767" mask="url(#mask-5)"></path>
                <path d="M34.3505245,6.3167605 C33.2831628,8.67371609 31.2097458,14.1590382 31.7227292,20.2664814 C32.2357126,26.3744046 35.2014796,31.5040232 36.6492559,33.6833671 C37.7166177,31.3268915 39.7905586,25.8415694 39.2770513,19.7336462 C38.7645919,13.626203 35.7988249,8.49610437 34.3505245,6.3167605 M36.7807767,36 C36.5198311,36 36.2730332,35.8857525 36.117409,35.6908596 C35.9010023,35.4182016 30.8031318,28.9176125 30.0868415,20.381689 C29.3700271,11.8462455 33.3214138,4.70769428 33.4896137,4.40767448 C33.6200865,4.17581917 33.8721243,4.02268906 34.1561253,4.00252773 C34.4396023,3.98092631 34.7146955,4.0990141 34.8823714,4.30926798 C35.0987781,4.58192598 40.1966486,11.0825151 40.912939,19.6184386 C41.6308013,28.153882 37.6783666,35.2929133 37.5101667,35.5924531 C37.379694,35.8243084 37.1276562,35.9774385 36.8436551,35.9975998 C36.8226957,35.9990399 36.8017362,36 36.7807767,36" id="Fill-37" fill="#707767" mask="url(#mask-5)"></path>
                <path d="M44.1770401,33.7672012 C45.3480084,36.1422767 48.3550761,41.3907607 53.6323453,45.2878917 C58.9201638,49.1938775 65.0777692,50.715933 67.8232151,51.2324676 C66.6511919,48.8573921 63.6451791,43.6094 58.3673824,39.7117771 C53.0800914,35.8062832 46.9219586,34.2837358 44.1770401,33.7672012 M69.1740483,53 C69.1424005,53 69.1102253,52.9980322 69.0775225,52.9945887 C68.7093532,52.9542498 59.9814198,51.9428257 52.6074843,46.4960908 C45.232494,41.0498478 42.1763722,33.3579089 42.0497811,33.03323 C41.9516729,32.7818498 42.000727,32.5014453 42.1779546,32.2923717 C42.3557097,32.0828062 42.6357927,31.9745799 42.9222052,32.0050801 C43.2903745,32.045419 52.018308,33.057335 59.3927709,38.503578 C66.7672338,43.9503129 69.823883,51.6417598 69.9504741,51.9669307 C70.0480548,52.217819 69.9995282,52.4982235 69.8217731,52.707789 C69.6640616,52.8932495 69.4245933,53 69.1740483,53" id="Fill-38" fill="#707767" mask="url(#mask-5)"></path>
            </g>
        </g>
    </g>
</svg>